<svg id="visual" viewBox="0 0 950 100" width="950" height="100" xmlns="http://www.w3.org/2000/svg" xmlns:xlink="http://www.w3.org/1999/xlink" version="1.1"><path d="M0 55L40 55L40 26L79 26L79 39L119 39L119 69L158 69L158 53L198 53L198 55L238 55L238 30L277 30L277 60L317 60L317 44L356 44L356 37L396 37L396 37L435 37L435 63L475 63L475 51L515 51L515 20L554 20L554 40L594 40L594 28L633 28L633 29L673 29L673 72L713 72L713 67L752 67L752 33L792 33L792 77L831 77L831 54L871 54L871 38L910 38L910 60L950 60L950 71L950 101L950 101L910 101L910 101L871 101L871 101L831 101L831 101L792 101L792 101L752 101L752 101L713 101L713 101L673 101L673 101L633 101L633 101L594 101L594 101L554 101L554 101L515 101L515 101L475 101L475 101L435 101L435 101L396 101L396 101L356 101L356 101L317 101L317 101L277 101L277 101L238 101L238 101L198 101L198 101L158 101L158 101L119 101L119 101L79 101L79 101L40 101L40 101L0 101Z" fill="#919191" stroke-linecap="square" stroke-linejoin="miter"></path></svg>