<svg id="visual" viewBox="0 0 950 100" width="950" height="100" xmlns="http://www.w3.org/2000/svg" xmlns:xlink="http://www.w3.org/1999/xlink" version="1.1"><path d="M0 23L40 23L40 79L79 79L79 59L119 59L119 45L158 45L158 46L198 46L198 22L238 22L238 68L277 68L277 71L317 71L317 42L356 42L356 54L396 54L396 33L435 33L435 57L475 57L475 56L515 56L515 27L554 27L554 21L594 21L594 46L633 46L633 30L673 30L673 51L713 51L713 64L752 64L752 57L792 57L792 44L831 44L831 33L871 33L871 50L910 50L910 40L950 40L950 67L950 0L950 0L910 0L910 0L871 0L871 0L831 0L831 0L792 0L792 0L752 0L752 0L713 0L713 0L673 0L673 0L633 0L633 0L594 0L594 0L554 0L554 0L515 0L515 0L475 0L475 0L435 0L435 0L396 0L396 0L356 0L356 0L317 0L317 0L277 0L277 0L238 0L238 0L198 0L198 0L158 0L158 0L119 0L119 0L79 0L79 0L40 0L40 0L0 0Z" fill="#919191" stroke-linecap="square" stroke-linejoin="miter"></path></svg>